<?xml version="1.0" encoding="utf-8"?>
<!-- Generator: Adobe Illustrator 19.0.1, SVG Export Plug-In . SVG Version: 6.00 Build 0)  -->
<svg version="1.1" id="Capa_1" xmlns="http://www.w3.org/2000/svg" xmlns:xlink="http://www.w3.org/1999/xlink" x="0px" y="0px"
	 viewBox="0 0 552.1 325" style="enable-background:new 0 0 552.1 325;" xml:space="preserve">
<metadata><?xpacket begin="﻿" id="W5M0MpCehiHzreSzNTczkc9d"?>
<x:xmpmeta xmlns:x="adobe:ns:meta/" x:xmptk="Adobe XMP Core 5.6-c067 79.157747, 2015/03/30-23:40:42        ">
   <rdf:RDF xmlns:rdf="http://www.w3.org/1999/02/22-rdf-syntax-ns#">
      <rdf:Description rdf:about=""/>
   </rdf:RDF>
</x:xmpmeta>
                                                                                                    
                                                                                                    
                                                                                                    
                                                                                                    
                                                                                                    
                                                                                                    
                                                                                                    
                                                                                                    
                                                                                                    
                                                                                                    
                                                                                                    
                                                                                                    
                                                                                                    
                                                                                                    
                                                                                                    
                                                                                                    
                                                                                                    
                                                                                                    
                                                                                                    
                                                                                                    
                           
<?xpacket end="w"?></metadata>
<style type="text/css">
	.st0{fill:#FFFFFF;}
</style>
<g>
	<path class="st0" d="M288.6,266.2c-1-1.2-2.2-2.3-3.5-3.3c-1.3-1-2.7-1.8-4.1-2.4c-2.8-1.3-5.8-2.3-8.8-3c-3-0.7-6-1.5-9-2.4
		c-1-0.2-2-0.5-2.9-0.9c-1-0.3-1.8-0.7-2.6-1.2c-0.8-0.5-1.4-1.1-2-1.8c-0.5-0.7-0.8-1.6-0.8-2.6c0-2,1.1-3.4,3.4-4.2
		c2.2-0.9,5.1-1.3,8.5-1.3c3.1,0,5.6,0.5,7.5,1.4c1.9,0.9,3.6,2.2,5.2,3.8l8.3-8.2c-2.6-2.8-5.7-5-9.2-6.6
		c-3.5-1.5-7.4-2.3-11.5-2.3c-3.7,0-7.2,0.4-10.2,1.1c-3.1,0.7-5.7,1.8-7.9,3.2s-3.9,3.2-5.1,5.3c-1.2,2.1-1.8,4.6-1.8,7.3
		c0,3.9,0.9,7.1,2.6,9.7c1.7,2.6,4.1,4.6,7.3,6.2c2.8,1.4,6,2.4,9.3,3.2c3.4,0.7,6.5,1.5,9.4,2.4c2.2,0.7,4.1,1.5,5.7,2.6
		c1.6,1.1,2.4,2.6,2.4,4.5c0,4.7-4,7.1-11.9,7.1c-4.2,0-7.5-0.6-9.8-1.7c-2.3-1.1-4.4-3-6.3-5.6l-9.9,6.2c2.8,5,6.3,8.4,10.7,10.2
		c4.3,1.8,9.2,2.7,14.7,2.7c3.3,0,6.6-0.4,9.7-1.1c3.1-0.7,5.9-1.9,8.3-3.5c2.4-1.6,4.3-3.7,5.7-6.3c1.4-2.6,2.1-5.8,2.1-9.5
		c0-1.8-0.3-3.4-0.9-4.9C290.4,268.8,289.6,267.4,288.6,266.2z"/>
	<path class="st0" d="M339.1,283c-2,0.5-4.3,0.7-6.8,0.7c-3.4,0-6.3-0.5-8.5-1.5c-2.3-1-4.1-2.3-5.4-4.1c-1.3-1.7-2.3-3.9-2.9-6.4
		c-0.6-2.5-0.9-5.4-0.9-8.5v-1.9c0-5.9,1.4-10.5,4.2-13.6c2.8-3.1,7.3-4.7,13.5-4.7c2.5,0,4.7,0.3,6.4,0.8c1.7,0.5,3.7,1.6,5.9,3.4
		l8.3-8.2c-2.6-2.6-5.7-4.6-9.3-5.9c-3.6-1.3-7.2-1.9-10.9-1.9c-9.7,0-17.2,2.7-22.6,8c-5.4,5.3-8.1,12.7-8.1,22v2.3
		c0,4.8,0.6,9.1,1.8,13c1.2,3.9,3,7.3,5.4,10.1c2.4,2.8,5.6,5,9.4,6.6c3.8,1.5,8.4,2.3,13.6,2.3c3.9,0,7.7-0.7,11.3-2
		c3.6-1.3,6.8-3.4,9.4-6.2l-7.8-7.5C343.2,281.5,341.2,282.5,339.1,283z"/>
	<path class="st0" d="M415.3,239.6c-2.8-2.6-6-4.7-9.7-6.2c-3.7-1.5-7.7-2.3-12-2.3c-4.6,0-8.7,0.7-12.3,2.3
		c-3.7,1.5-6.8,3.6-9.4,6.2c-2.6,2.6-4.6,5.8-6,9.4c-1.4,3.7-2.2,7.6-2.3,11.9v2.3c0,4.6,0.6,8.8,1.9,12.7c1.3,3.9,3.2,7.3,5.7,10.2
		s5.6,5.2,9.4,6.8c3.7,1.7,8,2.5,12.9,2.5c4.9,0,9.2-0.8,13-2.5c3.8-1.7,7-3.9,9.6-6.8s4.6-6.3,5.9-10.2c1.3-3.9,2-8.1,2-12.7v-2.6
		c0-4.2-0.8-8.2-2.3-11.8C420.2,245.4,418.1,242.2,415.3,239.6z M411.5,263.4c0,2.9-0.3,5.6-0.8,8.1s-1.5,4.6-2.8,6.5
		c-1.3,1.8-3.2,3.3-5.4,4.3c-2.3,1-5.2,1.5-8.8,1.5c-3.6,0-6.5-0.5-8.8-1.5c-2.3-1-4.1-2.4-5.4-4.1c-1.3-1.8-2.2-3.9-2.7-6.3
		c-0.5-2.4-0.7-5.1-0.7-8v-2.8c0-5.4,1.4-9.8,4.1-13.2c2.8-3.3,7.2-5,13.4-5c6.2,0,10.7,1.7,13.5,5c2.8,3.3,4.3,7.7,4.3,13V263.4z"
		/>
	<path class="st0" d="M455.7,233.2c-2,1.3-3.8,3.2-5.4,5.7h-0.7c-0.2-1.4-0.6-2.7-1.2-4c-0.5-1.2-1.1-2.5-1.8-3.7l-11.9,5.5
		c0.9,1.7,1.5,3.4,1.8,5.2c0.3,1.7,0.5,3.7,0.5,5.9v46.3h13.3v-28.8c0-1.9,0.2-4.1,0.5-6.6c0.3-2.4,0.9-4.7,1.8-6.9
		c0.9-2.2,2.2-3.9,3.8-5.4s3.7-2.1,6.3-2.1c1.9,0,3.9,0.6,6,1.8l4.6-12.3c-3.6-1.8-7-2.7-10.1-2.7
		C460.2,231.2,457.7,231.9,455.7,233.2z"/>
	<path class="st0" d="M538.1,260.6c0-4.4-0.6-8.4-1.9-12c-1.3-3.6-3.1-6.7-5.5-9.3c-2.4-2.6-5.4-4.6-8.9-6
		c-3.5-1.4-7.5-2.1-11.9-2.1c-3.9,0-7.6,0.6-11.1,1.8c-3.5,1.2-6.6,3-9.3,5.2c-2.7,2.3-4.8,5-6.5,8.2c-1.6,3.2-2.5,6.7-2.7,10.6
		c-0.1,0.9-0.1,1.8-0.1,2.8c0,1,0,2,0,3.1v1.3c0,10.3,2.6,18.1,7.9,23.4c5.3,5.3,13,7.9,23.2,7.9c5,0,9.6-1,13.9-3.1
		c4.3-2.1,7.8-5.3,10.4-9.7l-11-4.5c-1.9,1.9-3.8,3.3-5.5,4.1s-4.1,1.3-7.2,1.3c-3.5,0-6.4-0.4-8.8-1.2c-2.4-0.8-4.2-1.9-5.7-3.4
		c-1.4-1.4-2.4-3.1-3-5.1c-0.6-2-0.9-4.2-0.9-6.5h44.6V260.6z M493.5,256.2c0-2.3,0.5-4.2,1.4-5.9s2.2-3,3.7-4.1
		c1.5-1.1,3.3-1.9,5.2-2.4c2-0.5,3.9-0.7,6-0.7c2.2,0,4.2,0.3,6,1c1.8,0.7,3.4,1.5,4.8,2.7c1.3,1.1,2.4,2.5,3.1,4.1
		c0.7,1.6,1.1,3.4,1.1,5.4H493.5z"/>
	<path class="st0" d="M14,310.6h212.1V193.8H14V310.6z M81.2,294.1H70.7v-61.4h10.5V294.1z M168.3,231.2c0.6,1.1,1.2,2.3,1.7,3.4
		c0.5,1.1,0.9,2.4,1.2,3.8h0.7c1.7-2.1,4.1-3.8,7.1-5.2c3-1.3,6-2,8.7-2c3.7,0,7.1,0.6,10,1.8c3,1.2,5.5,2.8,7.5,4.9
		s3.6,4.5,4.6,7.3c1.1,2.8,1.6,5.8,1.6,9.1v39.9h-10.5v-40c0-4.2-1.3-7.6-3.8-10.1c-2.6-2.5-5.8-3.8-9.7-3.8c-3.7,0-6.9,0.7-9.7,2.1
		c-2.8,1.4-4.8,2.7-5.9,4v47.8h-10.5v-46.3c0-4.3-0.9-8.3-2.8-12.1L168.3,231.2z M103.1,231.2c0.6,1.1,1.2,2.3,1.7,3.4
		c0.5,1.1,0.9,2.4,1.2,3.8h0.7c1.7-2.1,4.1-3.8,7.1-5.2c3-1.3,6-2,8.7-2c3.7,0,7.1,0.6,10,1.8c3,1.2,5.5,2.8,7.5,4.9
		c2,2.1,3.6,4.5,4.6,7.3c1.1,2.8,1.6,5.8,1.6,9.1v39.9h-10.5v-40c0-4.2-1.3-7.6-3.8-10.1c-2.6-2.5-5.8-3.8-9.7-3.8
		c-3.7,0-6.9,0.7-9.7,2.1c-2.8,1.4-4.8,2.7-5.9,4v47.8H96.2v-46.3c0-4.3-0.9-8.3-2.8-12.1L103.1,231.2z M71.7,209.6
		c1.1-1.1,2.5-1.6,4.1-1.6s3,0.6,4.1,1.6c1.1,1.1,1.7,2.5,1.7,4.1s-0.6,3-1.7,4.1c-1.1,1.1-2.5,1.6-4.1,1.6s-3-0.5-4.1-1.6
		c-1.1-1.1-1.7-2.5-1.7-4.1S70.6,210.7,71.7,209.6z M28.9,232.7h7.7v-8.3c0-2.3,0.4-4.4,1.2-6.5c0.8-2,1.9-3.8,3.4-5.2
		c1.4-1.5,3.1-2.6,5-3.5c1.9-0.9,4-1.3,6.2-1.3c1.1,0,2.5,0.1,4.1,0.4c1.6,0.2,3.1,0.6,4.5,1.1v7.7h-6.2c-5,0-7.6,2.4-7.6,7.3v8.3
		h13.2l-2.6,8.2H47.1v53.3H36.6v-53.3h-7.7V232.7z"/>
	<path class="st0" d="M536.5,181.7l-84.1-84.1l-4.4,4.4l-87.7-87.7l-82.7,82.7l-10.6-10.6l-23.9,23.9l-7.4-7.4l-36.5,36.5L162,102.2
		l-30.3,30.3l-20-20l-42.1,42.1l-14.2-14.2L14,181.7l8.8,0l29.9-29.9v28.5l55.6-55.6v39.9l50.4-50.4v21l-46.4,46.4L536.5,181.7z
		 M262.1,113.6l-30.7,29.8l-5.5-5.5l-25.8,24.6v-16l30.7-30.7l0,14.8l31.3-31.3V113.6z M355.2,110.1l-79.7,28.2v-31.1l79.7-79.8
		V110.1z"/>
</g>
</svg>
