<?xml version="1.0" encoding="utf-8"?>
<!-- Generator: Adobe Illustrator 19.0.1, SVG Export Plug-In . SVG Version: 6.00 Build 0)  -->
<svg version="1.1" id="Capa_1" xmlns="http://www.w3.org/2000/svg" xmlns:xlink="http://www.w3.org/1999/xlink" x="0px" y="0px"
	 viewBox="0 0 552.1 325" style="enable-background:new 0 0 552.1 325;" xml:space="preserve">
<style type="text/css">
	.st0{fill:#623F92;}
	.st1{fill:#633F91;}
	.st2{fill:#FFFFFF;}
</style>
<g>
	<g>
		<path class="st0" d="M267,231.2c4.1,0,8,0.8,11.5,2.3c3.5,1.5,6.6,3.7,9.2,6.6l-8.3,8.2c-1.5-1.6-3.3-2.9-5.2-3.8
			c-1.9-0.9-4.4-1.4-7.5-1.4c-3.4,0-6.2,0.4-8.5,1.3c-2.2,0.9-3.4,2.3-3.4,4.2c0,1,0.3,1.8,0.8,2.6c0.5,0.7,1.2,1.3,2,1.8
			s1.6,0.9,2.6,1.2c1,0.3,2,0.6,2.9,0.9c3,0.9,6,1.7,9,2.4c3,0.7,5.9,1.7,8.8,3c1.5,0.6,2.8,1.5,4.1,2.4c1.3,1,2.5,2.1,3.5,3.3
			c1,1.2,1.8,2.6,2.4,4c0.6,1.5,0.9,3.1,0.9,4.9c0,3.7-0.7,6.9-2.1,9.5c-1.4,2.6-3.3,4.7-5.7,6.3c-2.4,1.6-5.2,2.8-8.3,3.5
			c-3.1,0.7-6.4,1.1-9.7,1.1c-5.4,0-10.3-0.9-14.7-2.7c-4.3-1.8-7.9-5.2-10.7-10.2l9.9-6.2c1.9,2.6,4,4.5,6.3,5.6
			c2.3,1.1,5.6,1.7,9.8,1.7c8,0,11.9-2.4,11.9-7.1c0-2-0.8-3.5-2.4-4.5c-1.6-1.1-3.5-1.9-5.7-2.6c-2.9-0.9-6.1-1.7-9.4-2.4
			c-3.4-0.7-6.5-1.8-9.3-3.2c-3.2-1.5-5.6-3.6-7.3-6.2c-1.7-2.6-2.6-5.8-2.6-9.7c0-2.8,0.6-5.2,1.8-7.3c1.2-2.1,2.9-3.9,5.1-5.3
			c2.2-1.4,4.8-2.5,7.9-3.2C259.8,231.6,263.2,231.2,267,231.2z"/>
		<path class="st0" d="M332.8,231.2c3.7,0,7.3,0.6,10.9,1.9c3.6,1.3,6.7,3.3,9.3,5.9l-8.3,8.2c-2.2-1.7-4.2-2.8-5.9-3.4
			c-1.7-0.5-3.9-0.8-6.4-0.8c-6.2,0-10.7,1.6-13.5,4.7c-2.8,3.1-4.2,7.7-4.2,13.6v1.9c0,3.2,0.3,6,0.9,8.5c0.6,2.5,1.5,4.7,2.9,6.4
			c1.3,1.7,3.2,3.1,5.4,4.1c2.3,1,5.1,1.5,8.5,1.5c2.5,0,4.8-0.2,6.8-0.7c2-0.5,4.1-1.5,6.1-3.2l7.8,7.5c-2.7,2.8-5.8,4.9-9.4,6.2
			c-3.6,1.3-7.4,2-11.3,2c-5.3,0-9.8-0.8-13.6-2.3c-3.8-1.5-6.9-3.7-9.4-6.6s-4.2-6.2-5.4-10.1c-1.2-3.9-1.8-8.3-1.8-13v-2.3
			c0-9.3,2.7-16.7,8.1-22C315.6,233.9,323.1,231.2,332.8,231.2z"/>
		<path class="st0" d="M393.6,295.6c-4.9,0-9.2-0.8-12.9-2.5c-3.7-1.7-6.9-3.9-9.4-6.8c-2.5-2.9-4.4-6.3-5.7-10.2
			c-1.3-3.9-1.9-8.1-1.9-12.7v-2.3c0.1-4.3,0.8-8.3,2.3-11.9c1.4-3.7,3.4-6.8,6-9.4c2.6-2.6,5.7-4.7,9.4-6.2
			c3.7-1.5,7.8-2.3,12.3-2.3c4.3,0,8.3,0.7,12,2.3c3.7,1.5,6.9,3.6,9.7,6.2c2.8,2.6,4.9,5.7,6.5,9.4c1.5,3.7,2.3,7.6,2.3,11.8v2.6
			c0,4.6-0.7,8.8-2,12.7c-1.3,3.9-3.3,7.3-5.9,10.2c-2.6,2.9-5.8,5.2-9.6,6.8C402.8,294.8,398.5,295.6,393.6,295.6z M411.5,263.4
			V261c0-5.4-1.4-9.7-4.3-13c-2.8-3.3-7.4-5-13.5-5c-6.2,0-10.6,1.7-13.4,5c-2.8,3.3-4.1,7.7-4.1,13.2v2.8c0,2.9,0.2,5.6,0.7,8
			c0.5,2.4,1.4,4.5,2.7,6.3c1.3,1.8,3.1,3.2,5.4,4.1c2.3,1,5.2,1.5,8.8,1.5c3.6,0,6.5-0.5,8.8-1.5c2.3-1,4.1-2.4,5.4-4.3
			c1.3-1.8,2.3-4,2.8-6.5C411.3,269,411.5,266.3,411.5,263.4z"/>
		<path class="st0" d="M450.3,238.9c1.5-2.4,3.3-4.3,5.4-5.7c2-1.3,4.6-2,7.6-2c3.2,0,6.5,0.9,10.1,2.7l-4.6,12.3
			c-2-1.2-4-1.8-6-1.8c-2.6,0-4.7,0.7-6.3,2.1c-1.6,1.4-2.9,3.2-3.8,5.4c-0.9,2.2-1.5,4.5-1.8,6.9c-0.3,2.4-0.5,4.6-0.5,6.6v28.8
			H437v-46.3c0-2.2-0.2-4.2-0.5-5.9s-0.9-3.5-1.8-5.2l11.9-5.5c0.6,1.2,1.2,2.5,1.8,3.7c0.5,1.3,0.9,2.6,1.2,4H450.3z"/>
		<path class="st0" d="M493.5,267.5c0,2.4,0.3,4.5,0.9,6.5c0.6,2,1.6,3.7,3,5.1c1.4,1.4,3.3,2.5,5.7,3.4c2.4,0.8,5.3,1.2,8.8,1.2
			c3.1,0,5.5-0.4,7.2-1.3c1.7-0.9,3.5-2.3,5.5-4.1l11,4.5c-2.6,4.4-6.1,7.6-10.4,9.7c-4.3,2.1-8.9,3.1-13.9,3.1
			c-10.2,0-17.9-2.6-23.2-7.9c-5.3-5.3-7.9-13.1-7.9-23.4v-1.3c0-1.1,0-2.1,0-3.1c0-1,0-1.9,0.1-2.8c0.2-3.9,1.1-7.4,2.7-10.6
			c1.6-3.2,3.8-5.9,6.5-8.2c2.7-2.3,5.8-4,9.3-5.2c3.5-1.2,7.2-1.8,11.1-1.8c4.5,0,8.5,0.7,11.9,2.1c3.5,1.4,6.5,3.4,8.9,6
			c2.4,2.6,4.3,5.6,5.5,9.3c1.3,3.6,1.9,7.6,1.9,12v6.9H493.5z M493.5,256.2h31.3c0-2-0.4-3.7-1.1-5.4c-0.7-1.6-1.8-3-3.1-4.1
			c-1.3-1.1-2.9-2-4.8-2.7c-1.8-0.7-3.8-1-6-1c-2,0-4,0.2-6,0.7c-1.9,0.5-3.7,1.3-5.2,2.4c-1.5,1.1-2.8,2.5-3.7,4.1
			C493.9,252,493.5,253.9,493.5,256.2z"/>
	</g>
	<rect x="14" y="193.8" class="st1" width="212.1" height="116.8"/>
	<g>
		<path class="st2" d="M36.6,224.4c0-2.3,0.4-4.4,1.2-6.5c0.8-2,1.9-3.8,3.4-5.2c1.4-1.5,3.1-2.6,5-3.5c1.9-0.9,4-1.3,6.2-1.3
			c1.1,0,2.5,0.1,4.1,0.4c1.6,0.2,3.1,0.6,4.5,1.1v7.7h-6.2c-5,0-7.6,2.4-7.6,7.3v8.3h13.2l-2.6,8.2H47.1v53.3H36.6v-53.3h-7.7v-8.2
			h7.7V224.4z"/>
		<path class="st2" d="M75.9,207.9c1.6,0,3,0.6,4.1,1.6c1.1,1.1,1.7,2.5,1.7,4.1c0,1.6-0.6,3-1.7,4.1c-1.1,1.1-2.5,1.6-4.1,1.6
			c-1.6,0-3-0.5-4.1-1.6c-1.1-1.1-1.7-2.5-1.7-4.1c0-1.6,0.6-3,1.7-4.1C72.9,208.5,74.2,207.9,75.9,207.9z M70.7,294.1v-61.4h10.5
			v61.4H70.7z"/>
		<path class="st2" d="M122.3,240.3c-3.7,0-6.9,0.7-9.7,2.1c-2.8,1.4-4.8,2.7-5.9,4v47.8H96.2v-46.3c0-4.3-0.9-8.3-2.8-12.1l9.6-4.5
			c0.6,1.1,1.2,2.3,1.7,3.4c0.5,1.1,0.9,2.4,1.2,3.8h0.7c1.7-2.1,4.1-3.8,7.1-5.2s6-2,8.7-2c3.7,0,7.1,0.6,10,1.8
			c3,1.2,5.5,2.8,7.5,4.9c2,2.1,3.6,4.5,4.6,7.3c1.1,2.8,1.6,5.8,1.6,9.1v39.9h-10.5v-40c0-4.2-1.3-7.6-3.8-10.1
			C129.4,241.5,126.2,240.3,122.3,240.3z"/>
		<path class="st2" d="M187.5,240.3c-3.7,0-6.9,0.7-9.7,2.1c-2.8,1.4-4.8,2.7-5.9,4v47.8h-10.5v-46.3c0-4.3-0.9-8.3-2.8-12.1
			l9.6-4.5c0.6,1.1,1.2,2.3,1.7,3.4c0.5,1.1,0.9,2.4,1.2,3.8h0.7c1.7-2.1,4.1-3.8,7.1-5.2c3-1.3,6-2,8.7-2c3.7,0,7.1,0.6,10,1.8
			c3,1.2,5.5,2.8,7.5,4.9c2,2.1,3.6,4.5,4.6,7.3c1.1,2.8,1.6,5.8,1.6,9.1v39.9h-10.5v-40c0-4.2-1.3-7.6-3.8-10.1
			C194.7,241.5,191.4,240.3,187.5,240.3z"/>
	</g>
	<g>
		<path class="st0" d="M452.4,97.6l-4.4,4.4l-87.7-87.7l-82.7,82.7l-10.6-10.6l-23.9,23.9l-7.4-7.4l-36.5,36.5L162,102.2l-30.3,30.3
			l-20-20l-42.1,42.1l-14.2-14.2L14,181.7h522.4L452.4,97.6z M158.7,135.3l-46.4,46.4h-4H91.3H52.7h-1.4H22.8l29.9-29.9v28.5
			l55.6-55.6v39.9l50.4-50.4V135.3z M262.1,113.6l-30.7,29.8l-5.5-5.5l-25.8,24.6v-16l30.7-30.7l0,14.8l31.3-31.3V113.6z
			 M355.2,110.1l-79.7,28.2v-31.1l79.7-79.8V110.1z"/>
		<polygon class="st2" points="275.5,138.3 355.2,110.1 355.2,27.3 275.5,107.1 		"/>
		<polygon class="st2" points="230.9,115.7 200.2,146.5 200.2,162.5 225.9,137.9 231.4,143.4 262.1,113.6 262.1,99.3 230.9,130.6 		
			"/>
		<polygon class="st2" points="108.3,124.7 52.7,180.3 52.7,151.9 22.8,181.7 51.3,181.7 52.7,181.7 91.3,181.7 108.3,181.7 
			112.3,181.7 158.7,135.3 158.7,114.3 108.3,164.7 		"/>
	</g>
</g>
</svg>
